<?xml version="1.0" encoding="utf-8"?><svg xmlns="http://www.w3.org/2000/svg" xmlns:xlink="http://www.w3.org/1999/xlink"><symbol viewBox="0 0 17 17" id="close" xmlns="http://www.w3.org/2000/svg"><path d="M.819 17.003L0 16.185l7.68-7.679L0 .827.82.01l7.679 7.68L16.178.01l.818.818-7.68 7.68 7.68 7.678-.818.818-7.68-7.679z"/></symbol><symbol viewBox="0 0 490.656 490.656" id="down-arrow" xmlns="http://www.w3.org/2000/svg"><path d="M487.536 120.445c-4.16-4.16-10.923-4.16-15.083 0L245.339 347.581 18.203 120.467c-4.16-4.16-10.923-4.16-15.083 0s-4.16 10.923 0 15.083l234.667 234.667c2.091 2.069 4.821 3.115 7.552 3.115s5.461-1.045 7.531-3.136l234.667-234.667c4.159-4.161 4.159-10.924-.001-15.084z"/></symbol><symbol viewBox="0 0 490.656 490.656" id="down-arrow-checkbox" xmlns="http://www.w3.org/2000/svg"><path d="M487.536 120.445c-4.16-4.16-10.923-4.16-15.083 0L245.339 347.581 18.203 120.467c-4.16-4.16-10.923-4.16-15.083 0s-4.16 10.923 0 15.083l234.667 234.667c2.091 2.069 4.821 3.115 7.552 3.115s5.461-1.045 7.531-3.136l234.667-234.667c4.159-4.161 4.159-10.924-.001-15.084z"/></symbol><symbol viewBox="0 0 22 17" id="email" xmlns="http://www.w3.org/2000/svg"><path d="M15.757 8.477l4.949 5V3.476zm-.852.86l-1.192 1.204A3.793 3.793 0 0111 11.677a3.793 3.793 0 01-2.713-1.136L7.095 9.336 1.31 15.182a.65.65 0 00.631.51H20.06a.65.65 0 00.631-.51zm-8.662-.86L1.294 3.475v10.003zM9.138 9.68a2.617 2.617 0 003.724 0l7.819-7.9a.65.65 0 00-.622-.473H1.94a.65.65 0 00-.622.472zM20.058 17H1.942A1.954 1.954 0 010 15.038V1.961C0 .88.87 0 1.941 0H20.06C21.129 0 22 .88 22 1.96v13.077C22 16.12 21.13 17 20.059 17z"/></symbol><symbol viewBox="0 0 512 512" id="facebook" xmlns="http://www.w3.org/2000/svg"><path d="M288 176v-64c0-17.664 14.336-32 32-32h32V0h-64c-53.024 0-96 42.976-96 96v80h-64v80h64v256h96V256h64l32-80h-96z"/></symbol><symbol viewBox="0 0 511 511.9" id="instagram" xmlns="http://www.w3.org/2000/svg"><path d="M510.95 150.5c-1.2-27.2-5.598-45.898-11.9-62.102-6.5-17.199-16.5-32.597-29.6-45.398-12.802-13-28.302-23.102-45.302-29.5-16.296-6.3-34.898-10.7-62.097-11.898C334.648.3 325.949 0 256.449 0s-78.199.3-105.5 1.5c-27.199 1.2-45.898 5.602-62.097 11.898-17.204 6.5-32.602 16.5-45.403 29.602-13 12.8-23.097 28.3-29.5 45.3-6.3 16.302-10.699 34.9-11.898 62.098C.75 177.801.449 186.5.449 256s.301 78.2 1.5 105.5c1.2 27.2 5.602 45.898 11.903 62.102 6.5 17.199 16.597 32.597 29.597 45.398 12.801 13 28.301 23.102 45.301 29.5 16.3 6.3 34.898 10.7 62.102 11.898 27.296 1.204 36 1.5 105.5 1.5s78.199-.296 105.5-1.5c27.199-1.199 45.898-5.597 62.097-11.898a130.934 130.934 0 0074.903-74.898c6.296-16.301 10.699-34.903 11.898-62.102 1.2-27.3 1.5-36 1.5-105.5s-.102-78.2-1.3-105.5zm-46.098 209c-1.102 25-5.301 38.5-8.801 47.5-8.602 22.3-26.301 40-48.602 48.602-9 3.5-22.597 7.699-47.5 8.796-27 1.204-35.097 1.5-103.398 1.5s-76.5-.296-103.403-1.5c-25-1.097-38.5-5.296-47.5-8.796C94.551 451.5 84.45 445 76.25 436.5c-8.5-8.3-15-18.3-19.102-29.398-3.5-9-7.699-22.602-8.796-47.5-1.204-27-1.5-35.102-1.5-103.403s.296-76.5 1.5-103.398c1.097-25 5.296-38.5 8.796-47.5C61.25 94.199 67.75 84.1 76.352 75.898c8.296-8.5 18.296-15 29.398-19.097 9-3.5 22.602-7.7 47.5-8.801 27-1.2 35.102-1.5 103.398-1.5 68.403 0 76.5.3 103.403 1.5 25 1.102 38.5 5.3 47.5 8.8 11.097 4.098 21.199 10.598 29.398 19.098 8.5 8.301 15 18.301 19.102 29.403 3.5 9 7.699 22.597 8.8 47.5 1.2 27 1.5 35.097 1.5 103.398s-.3 76.301-1.5 103.301zm0 0"/><path d="M256.45 124.5c-72.598 0-131.5 58.898-131.5 131.5s58.902 131.5 131.5 131.5c72.6 0 131.5-58.898 131.5-131.5s-58.9-131.5-131.5-131.5zm0 216.8c-47.098 0-85.302-38.198-85.302-85.3s38.204-85.3 85.301-85.3c47.102 0 85.301 38.198 85.301 85.3s-38.2 85.3-85.3 85.3zm167.402-222c0 16.954-13.747 30.7-30.704 30.7-16.953 0-30.699-13.746-30.699-30.7 0-16.956 13.746-30.698 30.7-30.698 16.956 0 30.703 13.742 30.703 30.699zm0 0"/></symbol><symbol viewBox="0 0 23 22" id="phone" xmlns="http://www.w3.org/2000/svg"><path d="M3.617 20.851a9.85 9.85 0 00-.788-.783l-.073-.069c-.21-.19-.424-.39-.634-.6-.47-.468-.72-1.011-.72-1.572 0-.564.254-1.102.734-1.556l2.686-2.575c.463-.46 1.018-.705 1.604-.705.583 0 1.144.243 1.624.701l1.582 1.506.42-.209c.177-.085.346-.165.49-.251 1.455-.882 2.777-2.033 4.043-3.519.614-.742 1.024-1.36 1.329-2.004l.02-.043-.036-.032c-.363-.317-.702-.646-1.031-.965l-.513-.496c-.49-.468-.75-1.012-.75-1.57s.26-1.102.75-1.57l1.364-1.303c.143-.137.29-.278.427-.417.293-.289.6-.587.919-.868.462-.438 1.012-.669 1.59-.669.58 0 1.14.232 1.624.677l1.663 1.603a3.3 3.3 0 011.042 2.132c.116 1.347-.3 2.607-.622 3.438-.792 2.042-1.977 3.93-3.73 5.943a22.81 22.81 0 01-7.642 5.716c-1.125.51-2.628 1.108-4.277 1.21a8.077 8.077 0 01-.305.008c-1.112 0-2.045-.383-2.79-1.158zM17.87 2.771c-.3.268-.584.545-.883.84l-.464.453-1.335 1.275c-.543.518-.543 1.022 0 1.54 0 0 .327.316.42.402.441.431.82.791 1.252 1.164.38.363.334.706.225 1.031-.34.788-.824 1.543-1.574 2.45-1.348 1.587-2.763 2.817-4.327 3.762a6.66 6.66 0 01-.61.317c-.173.083-.336.16-.529.274-.154.073-.302.11-.454.11-.378 0-.616-.229-.694-.304l-1.673-1.598c-.177-.168-.457-.369-.787-.369-.356 0-.626.227-.763.37L2.98 17.06c-.527.499-.53 1.036-.008 1.554.155.16.313.306.48.46l.12.113c.307.278.632.584.941.931.51.521 1.11.764 1.89.764.074 0 .154 0 .229-.004 1.469-.09 2.824-.636 3.84-1.1a21.68 21.68 0 007.243-5.419c1.669-1.922 2.792-3.708 3.533-5.62.457-1.169.627-2.079.552-2.954a2.168 2.168 0 00-.695-1.428l-1.67-1.596c-.254-.228-.528-.348-.79-.348-.33 0-.597.188-.775.358zM4.686 10.55a.572.572 0 01-.487-.654c.262-1.467.988-2.804 2.1-3.866a7.6 7.6 0 014.046-2.005.588.588 0 01.685.46.545.545 0 01-.1.43.573.573 0 01-.377.224A6.375 6.375 0 007.14 6.83a5.94 5.94 0 00-1.77 3.26.58.58 0 01-.583.468c-.032 0-.06-.004-.101-.008zm-4.198-.192a.578.578 0 01-.38-.224.53.53 0 01-.1-.42C.44 7.287 1.64 5.078 3.476 3.323A12.565 12.565 0 0110.166.01a.582.582 0 01.678.46.571.571 0 01-.487.655 11.36 11.36 0 00-6.049 2.994C2.647 5.707 1.563 7.705 1.174 9.897a.58.58 0 01-.583.469c-.032 0-.06-.004-.103-.009z"/></symbol><symbol viewBox="0 0 511.962 511.962" id="vk" xmlns="http://www.w3.org/2000/svg"><path d="M507.399 370.471c-1.376-2.304-9.888-20.8-50.848-58.816-42.88-39.808-37.12-33.344 14.528-102.176 31.456-41.92 44.032-67.52 40.096-78.464-3.744-10.432-26.88-7.68-26.88-7.68l-76.928.448s-5.696-.768-9.952 1.76c-4.128 2.496-6.784 8.256-6.784 8.256s-12.192 32.448-28.448 60.032c-34.272 58.208-48 61.28-53.6 57.664-13.024-8.416-9.76-33.856-9.76-51.904 0-56.416 8.544-79.936-16.672-86.016-8.384-2.016-14.528-3.36-35.936-3.584-27.456-.288-50.72.096-63.872 6.528-8.768 4.288-15.52 13.856-11.392 14.4 5.088.672 16.608 3.104 22.72 11.424 7.904 10.72 7.616 34.848 7.616 34.848s4.544 66.4-10.592 74.656c-10.4 5.664-24.64-5.888-55.2-58.72-15.648-27.04-27.488-56.96-27.488-56.96s-2.272-5.568-6.336-8.544c-4.928-3.616-11.84-4.768-11.84-4.768l-73.152.448s-10.976.32-15.008 5.088c-3.584 4.256-.288 13.024-.288 13.024s57.28 133.984 122.112 201.536c59.488 61.92 127.008 57.856 127.008 57.856h30.592s9.248-1.024 13.952-6.112c4.352-4.672 4.192-13.44 4.192-13.44s-.608-41.056 18.464-47.104c18.784-5.952 42.912 39.68 68.48 57.248 19.328 13.28 34.016 10.368 34.016 10.368l68.384-.96s35.776-2.208 18.816-30.336z"/></symbol></svg>