<svg xmlns="http://www.w3.org/2000/svg" width="22" height="17"><path fill="#2d2926" d="M15.757 8.477l4.949 5V3.476zm-.852.86l-1.192 1.204A3.793 3.793 0 0111 11.677a3.793 3.793 0 01-2.713-1.136L7.095 9.336 1.31 15.182a.65.65 0 00.631.51H20.06a.65.65 0 00.631-.51zm-8.662-.86L1.294 3.475v10.003zM9.138 9.68a2.617 2.617 0 003.724 0l7.819-7.9a.65.65 0 00-.622-.473H1.94a.65.65 0 00-.622.472zM20.058 17H1.942A1.954 1.954 0 010 15.038V1.961C0 .88.87 0 1.941 0H20.06C21.129 0 22 .88 22 1.96v13.077C22 16.12 21.13 17 20.059 17z"/></svg>