<svg xmlns="http://www.w3.org/2000/svg" width="23" height="22"><path fill="#2d2926" d="M3.617 20.851a9.85 9.85 0 00-.788-.783l-.073-.069c-.21-.19-.424-.39-.634-.6-.47-.468-.72-1.011-.72-1.572 0-.564.254-1.102.734-1.556l2.686-2.575c.463-.46 1.018-.705 1.604-.705.583 0 1.144.243 1.624.701l1.582 1.506.42-.209c.177-.085.346-.165.49-.251 1.455-.882 2.777-2.033 4.043-3.519.614-.742 1.024-1.36 1.329-2.004l.02-.043-.036-.032c-.363-.317-.702-.646-1.031-.965l-.513-.496c-.49-.468-.75-1.012-.75-1.57s.26-1.102.75-1.57l1.364-1.303c.143-.137.29-.278.427-.417.293-.289.6-.587.919-.868.462-.438 1.012-.669 1.59-.669.58 0 1.14.232 1.624.677l1.663 1.603a3.3 3.3 0 011.042 2.132c.116 1.347-.3 2.607-.622 3.438-.792 2.042-1.977 3.93-3.73 5.943a22.81 22.81 0 01-7.642 5.716c-1.125.51-2.628 1.108-4.277 1.21a8.077 8.077 0 01-.305.008c-1.112 0-2.045-.383-2.79-1.158zM17.87 2.771c-.3.268-.584.545-.883.84l-.464.453-1.335 1.275c-.543.518-.543 1.022 0 1.54 0 0 .327.316.42.402.441.431.82.791 1.252 1.164.38.363.334.706.225 1.031-.34.788-.824 1.543-1.574 2.45-1.348 1.587-2.763 2.817-4.327 3.762a6.66 6.66 0 01-.61.317c-.173.083-.336.16-.529.274-.154.073-.302.11-.454.11-.378 0-.616-.229-.694-.304l-1.673-1.598c-.177-.168-.457-.369-.787-.369-.356 0-.626.227-.763.37L2.98 17.06c-.527.499-.53 1.036-.008 1.554.155.16.313.306.48.46l.12.113c.307.278.632.584.941.931.51.521 1.11.764 1.89.764.074 0 .154 0 .229-.004 1.469-.09 2.824-.636 3.84-1.1a21.68 21.68 0 007.243-5.419c1.669-1.922 2.792-3.708 3.533-5.62.457-1.169.627-2.079.552-2.954a2.168 2.168 0 00-.695-1.428l-1.67-1.596c-.254-.228-.528-.348-.79-.348-.33 0-.597.188-.775.358zM4.686 10.55a.572.572 0 01-.487-.654c.262-1.467.988-2.804 2.1-3.866a7.6 7.6 0 014.046-2.005.588.588 0 01.685.46.545.545 0 01-.1.43.573.573 0 01-.377.224A6.375 6.375 0 007.14 6.83a5.94 5.94 0 00-1.77 3.26.58.58 0 01-.583.468c-.032 0-.06-.004-.101-.008zm-4.198-.192a.578.578 0 01-.38-.224.53.53 0 01-.1-.42C.44 7.287 1.64 5.078 3.476 3.323A12.565 12.565 0 0110.166.01a.582.582 0 01.678.46.571.571 0 01-.487.655 11.36 11.36 0 00-6.049 2.994C2.647 5.707 1.563 7.705 1.174 9.897a.58.58 0 01-.583.469c-.032 0-.06-.004-.103-.009z"/></svg>